<svg viewBox="0 0 120 122" xmlns="http://www.w3.org/2000/svg" role="img" aria-label="Umang Infrastructure logo">
  <defs>
    <linearGradient id="uBlue" x1="0" y1="0" x2="1" y2="0">
      <stop offset="0" stop-color="#2f63ad"/>
      <stop offset="0.55" stop-color="#3a7bd5"/>
      <stop offset="1" stop-color="#d23a2b"/>
    </linearGradient>
    <linearGradient id="bBlue" x1="0" y1="1" x2="0" y2="0">
      <stop offset="0" stop-color="#2456a0"/><stop offset="1" stop-color="#3a7bd5"/>
    </linearGradient>
    <linearGradient id="bGold" x1="0" y1="1" x2="0" y2="0">
      <stop offset="0" stop-color="#d97b1f"/><stop offset="1" stop-color="#f3ab3c"/>
    </linearGradient>
    <linearGradient id="bRed" x1="0" y1="1" x2="0" y2="0">
      <stop offset="0" stop-color="#c1271a"/><stop offset="1" stop-color="#e84a30"/>
    </linearGradient>
  </defs>
  <!-- U swoosh -->
  <path fill="url(#uBlue)" fill-rule="evenodd" d="M14,48 C14,95 35,114 60,114 C85,114 106,95 106,48 L91,48 C91,86 78,99 60,99 C42,99 29,86 29,48 Z"/>
  <!-- ascending growth bars -->
  <rect x="33"  y="54" width="12" height="34" rx="3" fill="url(#bBlue)"/>
  <rect x="48"  y="40" width="12" height="48" rx="3" fill="url(#bGold)"/>
  <rect x="63"  y="28" width="12" height="60" rx="3" fill="url(#bGold)"/>
  <rect x="78"  y="14" width="12" height="74" rx="3" fill="url(#bRed)"/>
</svg>
